# WaveFront *.obj file (generated by CINEMA 4D)

mtllib ./washingmachine.mtl

v -255 12.91931056976318 225
v -255 732.9193115234375 225
v 255 12.91931056976318 225
v 255 732.9193115234375 225
v 255 12.91931056976318 -225
v 255 732.9193115234375 -225
v -255 12.91931056976318 -225
v -255 732.9193115234375 -225
# 8 vertices

vn 0 0 1
vn 1 0 0
vn 0 0 -1
vn -1 0 0
vn 0 1 0
vn 0 -1 0
# 6 normals

vt 0.25 0.375 0
vt 0.25 0.625 0
vt 0.5 0.625 0
vt 0.5 0.375 0
vt 0.75 0.625 0
vt 0.75 0.375 0
vt 1 0.625 0
vt 1 0.375 0
vt 0 0.375 0
vt 0 0.625 0
vt 0.25 0.875 0
vt 0.5 0.875 0
vt 0.25 0.125 0
vt 0.5 0.125 0
# 14 texture coordinates

o 立方体
usemtl 材质
f 3/4/1 4/3/1 2/2/1 1/1/1
f 5/6/2 6/5/2 4/3/2 3/4/2
f 7/8/3 8/7/3 6/5/3 5/6/3
f 1/1/4 2/2/4 8/10/4 7/9/4
f 4/3/5 6/12/5 8/11/5 2/2/5
f 5/14/6 3/4/6 1/1/6 7/13/6

