# WaveFront *.obj file (generated by CINEMA 4D)

mtllib ./0airconditioner.mtl

v -480 291.85537719726562 105.59999847412109
v 480 291.85537719726562 105.59999847412109
v 480 3.85537314414978 -105.59999847412109
v 480 291.85537719726562 -105.59999847412109
v -480 3.85537314414978 -105.59999847412109
v -480 291.85537719726562 -105.59999847412109
v -480 5.83060884475708 7.03383541107178
v 480 5.83060884475708 7.03383541107178
v -480 110.27269744873047 95.22030639648438
v 480 110.27269744873047 95.22030639648438
v -480 10.98107147216797 25.64347839355469
v -480 22.32993125915527 47.86038970947266
v -480 34.9352912902832 64.48007202148438
v -480 51.53092193603516 77.89021301269531
v -480 70.12687683105469 87.07303619384766
v -480 89.52261352539062 93.15423583984375
v 480 10.98107147216797 25.64347839355469
v 480 22.32993125915527 47.86038970947266
v 480 34.9352912902832 64.48007202148438
v 480 51.53092193603516 77.89021301269531
v 480 70.12687683105469 87.07303619384766
v 480 89.52261352539062 93.15423583984375
# 22 vertices

vn 0 -0.0780915915966 0.99694621562958
vn 0 -0.05706918612123 0.99837023019791
vn 0 0 -1
vn 0 1 0
vn 0 -0.99984627962112 0.01753409206867
vn 0 -0.98968291282654 0.1432750672102
vn 0 -0.93191605806351 0.36267405748367
vn 0 -0.84694683551788 0.53167754411697
vn 0 -0.71789044141769 0.69615608453751
vn 0 -0.53892177343369 0.84235578775406
vn 0 -0.37208420038223 0.92819899320602
vn 0 -0.20017236471176 0.97976070642471
vn 1 0 0
vn 0 0 0
vn -1 0 0
# 15 normals

vt 0.25 0.46737623214722 0
vt 0.25 0.625 0
vt 0.5 0.625 0
vt 0.5 0.46737623214722 0
vt 0.75 0.375 0
vt 0.75 0.625 0
vt 1 0.625 0
vt 1 0.375 0
vt 0.25 0.875 0
vt 0.5 0.875 0
vt 0.25 0.125 0
vt 0.25 0.25832605361938 0
vt 0.5 0.25832605361938 0
vt 0.5 0.125 0
vt 0.25 0.28035449981689 0
vt 0.5 0.28035449981689 0
vt 0.25 0.30665290355682 0
vt 0.5 0.30665290355682 0
vt 0.25 0.39103698730469 0
vt 0.25 0.40197908878326 0
vt 0.5 0.40197908878326 0
vt 0.5 0.39103698730469 0
vt 0.25 0.41638505458832 0
vt 0.5 0.41638505458832 0
vt 0.25 0.43252742290497 0
vt 0.5 0.43252742290497 0
vt 0.25 0.44936394691467 0
vt 0.5 0.44936394691467 0
vt 0.61667394638062 0.37671458721161 0
vt 0.59464550018311 0.38118553161621 0
vt 0.51228654384613 0.46737623214722 0
vt 0.56834709644318 0.39103698730469 0
vt 0.52193057537079 0.43252742290497 0
vt 0.54867416620255 0.40197908878326 0
vt 0.5328004360199 0.41638505458832 0
vt 0.51473218202591 0.44936394691467 0
vt 0.13332603871822 0.37671458721161 0
vt 0 0.375 0
vt 0.23771342635155 0.46737623214722 0
vt 0.15535449981689 0.38118553161621 0
vt 0.23526778817177 0.44936394691467 0
vt 0.22806940972805 0.43252742290497 0
vt 0.18165291845798 0.39103698730469 0
vt 0 0.625 0
vt 0.21719959378242 0.41638505458832 0
vt 0.20132584869862 0.40197908878326 0
# 46 texture coordinates

o airconditioner
usemtl æè´¨_1
f 10/4/1 2/3/2 1/2/2 9/1/1
f 5/8/3 6/7/3 4/6/3 3/5/3
f 2/3/4 4/10/4 6/9/4 1/2/4
f 3/14/5 8/13/6 7/12/6 5/11/5
f 8/13/6 17/16/7 11/15/7 7/12/6
f 17/16/7 18/18/8 12/17/8 11/15/7
f 18/22/8 19/21/9 13/20/9 12/19/8
f 19/21/9 20/24/10 14/23/10 13/20/9
f 20/24/10 21/26/11 15/25/11 14/23/10
f 21/26/11 22/28/12 16/27/12 15/25/11
f 22/28/12 10/4/1 9/1/1 16/27/12
f 3/5/13 4/6/13 2/3/13 10/31/13 22/36/13 21/33/13 20/35/13 19/34/13 18/32/13 17/30/13 8/29/13
f 7/37/15 11/40/15 12/43/15 13/46/15 14/45/15 15/42/15 16/41/15 9/39/15 1/2/15 6/44/15 5/38/15

